<svg width="220" height="26" viewBox="0 0 220 26" fill="none" xmlns="http://www.w3.org/2000/svg">
<g clip-path="url(#clip0_7_628)">
<path d="M9 24C9.55228 24 10 23.5523 10 23C10 22.4477 9.55228 22 9 22C8.44772 22 8 22.4477 8 23C8 23.5523 8.44772 24 9 24Z" stroke="#2B38CF" stroke-width="2" stroke-linecap="round" stroke-linejoin="round"/>
<path d="M20 24C20.5523 24 21 23.5523 21 23C21 22.4477 20.5523 22 20 22C19.4477 22 19 22.4477 19 23C19 23.5523 19.4477 24 20 24Z" stroke="#2B38CF" stroke-width="2" stroke-linecap="round" stroke-linejoin="round"/>
<path d="M1 3H5L7.68 16.39C7.77144 16.8504 8.02191 17.264 8.38755 17.5583C8.75318 17.8526 9.2107 18.009 9.68 18H19.4C19.8693 18.009 20.3268 17.8526 20.6925 17.5583C21.0581 17.264 21.3086 16.8504 21.4 16.39L23 8H6" stroke="#2B38CF" stroke-width="3" stroke-linecap="round" stroke-linejoin="round"/>
</g>
<path d="M42.11 16.95C42.55 17.73 43.03 18.41 43.55 18.99C44.09 19.57 44.68 20.02 45.32 20.34C45.96 20.66 46.65 20.82 47.39 20.82C48.25 20.82 48.95 20.6 49.49 20.16C50.03 19.72 50.3 19.12 50.3 18.36C50.3 17.7 50.13 17.17 49.79 16.77C49.47 16.37 48.98 16.02 48.32 15.72C47.68 15.4 46.89 15.06 45.95 14.7C45.45 14.52 44.87 14.28 44.21 13.98C43.57 13.66 42.96 13.26 42.38 12.78C41.8 12.28 41.32 11.68 40.94 10.98C40.56 10.26 40.37 9.4 40.37 8.4C40.37 7.2 40.67 6.17 41.27 5.31C41.89 4.43 42.72 3.76 43.76 3.3C44.82 2.82 46 2.58 47.3 2.58C48.64 2.58 49.79 2.81 50.75 3.27C51.73 3.71 52.54 4.28 53.18 4.98C53.84 5.66 54.35 6.37 54.71 7.11L51.35 8.97C51.07 8.47 50.73 8.02 50.33 7.62C49.95 7.2 49.51 6.87 49.01 6.63C48.51 6.37 47.94 6.24 47.3 6.24C46.46 6.24 45.83 6.44 45.41 6.84C44.99 7.22 44.78 7.67 44.78 8.19C44.78 8.71 44.95 9.17 45.29 9.57C45.63 9.95 46.15 10.32 46.85 10.68C47.55 11.02 48.43 11.37 49.49 11.73C50.17 11.97 50.82 12.27 51.44 12.63C52.08 12.99 52.65 13.43 53.15 13.95C53.67 14.45 54.07 15.05 54.35 15.75C54.65 16.43 54.8 17.22 54.8 18.12C54.8 19.14 54.6 20.05 54.2 20.85C53.8 21.65 53.25 22.33 52.55 22.89C51.85 23.43 51.06 23.84 50.18 24.12C49.32 24.42 48.41 24.57 47.45 24.57C46.17 24.57 44.97 24.33 43.85 23.85C42.75 23.35 41.79 22.68 40.97 21.84C40.15 21 39.51 20.09 39.05 19.11L42.11 16.95ZM78.3376 15.18V24H74.4376V15.6C74.4376 14.66 74.2776 13.96 73.9576 13.5C73.6376 13.02 73.1176 12.78 72.3976 12.78C71.9176 12.78 71.4976 12.89 71.1376 13.11C70.7776 13.31 70.4976 13.63 70.2976 14.07C70.0976 14.49 69.9976 15 69.9976 15.6V24H66.1276V15.6C66.1276 14.66 65.9676 13.96 65.6476 13.5C65.3276 13.02 64.8076 12.78 64.0876 12.78C63.6076 12.78 63.1876 12.89 62.8276 13.11C62.4676 13.31 62.1876 13.63 61.9876 14.07C61.7876 14.49 61.6876 15 61.6876 15.6V24H57.9376V10.2H61.6876V12.24C62.0876 11.48 62.6176 10.9 63.2776 10.5C63.9376 10.1 64.7276 9.9 65.6476 9.9C66.6676 9.9 67.5076 10.1 68.1676 10.5C68.8276 10.9 69.3076 11.49 69.6076 12.27C70.1076 11.49 70.7176 10.9 71.4376 10.5C72.1776 10.1 73.0176 9.9 73.9576 9.9C74.9776 9.9 75.8076 10.11 76.4476 10.53C77.0876 10.93 77.5576 11.53 77.8576 12.33C78.1776 13.11 78.3376 14.06 78.3376 15.18ZM84.9261 19.71C84.9261 20.11 85.0261 20.46 85.2261 20.76C85.4261 21.04 85.6961 21.26 86.0361 21.42C86.3961 21.56 86.7861 21.63 87.2061 21.63C87.8061 21.63 88.3461 21.51 88.8261 21.27C89.3061 21.01 89.6961 20.65 89.9961 20.19C90.2961 19.71 90.4461 19.14 90.4461 18.48L90.9261 20.28C90.9261 21.16 90.6761 21.9 90.1761 22.5C89.6961 23.1 89.0661 23.55 88.2861 23.85C87.5261 24.15 86.7261 24.3 85.8861 24.3C85.0261 24.3 84.2261 24.13 83.4861 23.79C82.7461 23.45 82.1461 22.96 81.6861 22.32C81.2461 21.66 81.0261 20.86 81.0261 19.92C81.0261 18.58 81.4961 17.52 82.4361 16.74C83.3761 15.96 84.7061 15.57 86.4261 15.57C87.3061 15.57 88.0761 15.66 88.7361 15.84C89.4161 16.02 89.9861 16.24 90.4461 16.5C90.9061 16.76 91.2361 17.01 91.4361 17.25V19.05C90.8961 18.65 90.2861 18.35 89.6061 18.15C88.9461 17.95 88.2461 17.85 87.5061 17.85C86.9061 17.85 86.4161 17.93 86.0361 18.09C85.6561 18.23 85.3761 18.44 85.1961 18.72C85.0161 18.98 84.9261 19.31 84.9261 19.71ZM83.4261 14.1L81.9861 11.46C82.7061 11.08 83.5861 10.72 84.6261 10.38C85.6661 10.02 86.8261 9.84 88.1061 9.84C89.2861 9.84 90.3361 10.01 91.2561 10.35C92.1761 10.69 92.8961 11.19 93.4161 11.85C93.9361 12.49 94.1961 13.28 94.1961 14.22V24H90.4461V15.03C90.4461 14.65 90.3861 14.33 90.2661 14.07C90.1461 13.79 89.9561 13.56 89.6961 13.38C89.4561 13.2 89.1661 13.07 88.8261 12.99C88.4861 12.91 88.1061 12.87 87.6861 12.87C87.0461 12.87 86.4361 12.94 85.8561 13.08C85.2761 13.22 84.7761 13.39 84.3561 13.59C83.9361 13.79 83.6261 13.96 83.4261 14.1ZM101.621 10.2V24H97.8106V10.2H101.621ZM105.671 14.25C105.411 14.01 105.141 13.83 104.861 13.71C104.601 13.57 104.271 13.5 103.871 13.5C103.391 13.5 102.981 13.63 102.641 13.89C102.301 14.15 102.041 14.52 101.861 15C101.701 15.46 101.621 16.02 101.621 16.68L100.541 15.6C100.541 14.5 100.751 13.53 101.171 12.69C101.591 11.83 102.141 11.15 102.821 10.65C103.501 10.13 104.201 9.87 104.921 9.87C105.421 9.87 105.891 9.96 106.331 10.14C106.791 10.32 107.161 10.59 107.441 10.95L105.671 14.25ZM107.73 10.2H116.25V13.47H107.73V10.2ZM110.1 5.4H113.85V24H110.1V5.4ZM132.293 12.21L130.943 24H126.473L129.593 1.95L138.383 15.51L147.173 1.95L150.293 24H145.823L144.473 12.21L138.383 22.05L132.293 12.21ZM152.369 17.1C152.369 15.66 152.699 14.4 153.359 13.32C154.039 12.24 154.949 11.4 156.089 10.8C157.249 10.2 158.559 9.9 160.019 9.9C161.479 9.9 162.779 10.2 163.919 10.8C165.079 11.4 165.989 12.24 166.649 13.32C167.329 14.4 167.669 15.66 167.669 17.1C167.669 18.52 167.329 19.78 166.649 20.88C165.989 21.96 165.079 22.8 163.919 23.4C162.779 24 161.479 24.3 160.019 24.3C158.559 24.3 157.249 24 156.089 23.4C154.949 22.8 154.039 21.96 153.359 20.88C152.699 19.78 152.369 18.52 152.369 17.1ZM156.329 17.1C156.329 17.88 156.489 18.57 156.809 19.17C157.149 19.75 157.599 20.21 158.159 20.55C158.719 20.87 159.339 21.03 160.019 21.03C160.699 21.03 161.319 20.87 161.879 20.55C162.439 20.21 162.879 19.75 163.199 19.17C163.539 18.57 163.709 17.88 163.709 17.1C163.709 16.32 163.539 15.63 163.199 15.03C162.879 14.43 162.439 13.97 161.879 13.65C161.319 13.33 160.699 13.17 160.019 13.17C159.339 13.17 158.719 13.33 158.159 13.65C157.599 13.97 157.149 14.43 156.809 15.03C156.489 15.63 156.329 16.32 156.329 17.1ZM174.394 0.599999V24H170.494V0.599999H174.394ZM185.734 17.1C185.734 18.62 185.424 19.92 184.804 21C184.184 22.08 183.364 22.9 182.344 23.46C181.344 24.02 180.264 24.3 179.104 24.3C177.964 24.3 176.944 24.01 176.044 23.43C175.164 22.85 174.464 22.02 173.944 20.94C173.424 19.86 173.164 18.58 173.164 17.1C173.164 15.6 173.424 14.32 173.944 13.26C174.464 12.18 175.164 11.35 176.044 10.77C176.944 10.19 177.964 9.9 179.104 9.9C180.264 9.9 181.344 10.18 182.344 10.74C183.364 11.3 184.184 12.12 184.804 13.2C185.424 14.26 185.734 15.56 185.734 17.1ZM181.714 17.1C181.714 16.28 181.544 15.57 181.204 14.97C180.864 14.37 180.404 13.91 179.824 13.59C179.264 13.27 178.644 13.11 177.964 13.11C177.384 13.11 176.814 13.27 176.254 13.59C175.714 13.89 175.264 14.34 174.904 14.94C174.564 15.54 174.394 16.26 174.394 17.1C174.394 17.94 174.564 18.66 174.904 19.26C175.264 19.86 175.714 20.32 176.254 20.64C176.814 20.94 177.384 21.09 177.964 21.09C178.644 21.09 179.264 20.93 179.824 20.61C180.404 20.29 180.864 19.83 181.204 19.23C181.544 18.63 181.714 17.92 181.714 17.1ZM188.451 4.86C188.451 4.22 188.681 3.7 189.141 3.3C189.601 2.88 190.151 2.67 190.791 2.67C191.431 2.67 191.971 2.88 192.411 3.3C192.871 3.7 193.101 4.22 193.101 4.86C193.101 5.48 192.871 6 192.411 6.42C191.971 6.84 191.431 7.05 190.791 7.05C190.151 7.05 189.601 6.84 189.141 6.42C188.681 6 188.451 5.48 188.451 4.86ZM188.871 10.2H192.651V24H188.871V10.2ZM196.775 0.599999H200.675V24H196.775V0.599999ZM211.02 24.3C209.52 24.3 208.21 24 207.09 23.4C205.97 22.8 205.1 21.97 204.48 20.91C203.88 19.83 203.58 18.56 203.58 17.1C203.58 15.62 203.88 14.35 204.48 13.29C205.1 12.21 205.97 11.38 207.09 10.8C208.21 10.2 209.53 9.9 211.05 9.9C212.57 9.9 213.86 10.18 214.92 10.74C216 11.28 216.82 12.08 217.38 13.14C217.94 14.18 218.22 15.44 218.22 16.92C218.22 17.1 218.21 17.29 218.19 17.49C218.19 17.69 218.18 17.85 218.16 17.97H205.8V15.57H214.77L213.72 16.95C213.8 16.83 213.87 16.67 213.93 16.47C214.01 16.25 214.05 16.07 214.05 15.93C214.05 15.25 213.92 14.67 213.66 14.19C213.42 13.71 213.07 13.33 212.61 13.05C212.15 12.77 211.61 12.63 210.99 12.63C210.23 12.63 209.59 12.8 209.07 13.14C208.57 13.46 208.18 13.95 207.9 14.61C207.64 15.25 207.5 16.05 207.48 17.01C207.48 17.93 207.61 18.71 207.87 19.35C208.15 19.99 208.56 20.48 209.1 20.82C209.64 21.16 210.29 21.33 211.05 21.33C211.91 21.33 212.64 21.17 213.24 20.85C213.86 20.51 214.37 20.01 214.77 19.35L218.16 20.4C217.44 21.7 216.48 22.68 215.28 23.34C214.1 23.98 212.68 24.3 211.02 24.3Z" fill="#2B38D1"/>
<defs>
<clipPath id="clip0_7_628">
<rect width="24" height="24" fill="white" transform="translate(0 2)"/>
</clipPath>
</defs>
</svg>
